<svg width="24" height="24" viewBox="0 0 24 24" fill="none" xmlns="http://www.w3.org/2000/svg">
<g id="Arrow" clip-path="url(#clip0_201_36)">
<g id="Vector" filter="url(#filter0_d_201_36)">
<path d="M20.9983 4.02675L2.9983 4.02675C2.81606 4.02732 2.63742 4.07759 2.48162 4.17213C2.32582 4.26667 2.19876 4.40192 2.1141 4.5633C2.02945 4.72469 1.99041 4.90611 2.00119 5.08803C2.01198 5.26996 2.07217 5.44549 2.1753 5.59575L11.1753 18.5958C11.5483 19.1348 12.4463 19.1348 12.8203 18.5958L21.8203 5.59575C21.9245 5.44581 21.9856 5.27018 21.9969 5.08796C22.0083 4.90573 21.9695 4.72387 21.8848 4.56214C21.8001 4.40041 21.6726 4.265 21.5163 4.17061C21.36 4.07622 21.1809 4.02646 20.9983 4.02675Z" fill="white"/>
</g>
</g>
<defs>
<filter id="filter0_d_201_36" x="-1.00056" y="1.02673" width="27.9994" height="22.9733" filterUnits="userSpaceOnUse" color-interpolation-filters="sRGB">
<feFlood flood-opacity="0" result="BackgroundImageFix"/>
<feColorMatrix in="SourceAlpha" type="matrix" values="0 0 0 0 0 0 0 0 0 0 0 0 0 0 0 0 0 0 127 0" result="hardAlpha"/>
<feOffset dx="1" dy="1"/>
<feGaussianBlur stdDeviation="2"/>
<feComposite in2="hardAlpha" operator="out"/>
<feColorMatrix type="matrix" values="0 0 0 0 1 0 0 0 0 1 0 0 0 0 1 0 0 0 0.25 0"/>
<feBlend mode="normal" in2="BackgroundImageFix" result="effect1_dropShadow_201_36"/>
<feBlend mode="normal" in="SourceGraphic" in2="effect1_dropShadow_201_36" result="shape"/>
</filter>
<clipPath id="clip0_201_36">
<rect width="24" height="24" fill="white"/>
</clipPath>
</defs>
</svg>
