<svg width="223" height="41" viewBox="0 0 223 41" fill="none" xmlns="http://www.w3.org/2000/svg">
<path d="M88.8631 15.9096C88.7844 14.848 88.1184 14.8463 87.2661 15.5043C83.7974 18.1809 82.0977 17.6805 80.4461 17.1239C78.7943 16.5674 78.1026 13.1256 81.0318 13.1753C83.9629 13.2268 85.5614 16.2121 85.454 19.0989C85.3479 21.9844 83.5888 25.5775 79.2744 25.6787C74.9597 25.78 73.1476 21.7303 73.0948 19.5026C73.0417 17.2752 74.053 16.1106 74.3724 15.8083C74.6933 15.5043 74.7992 15.2502 74.4254 15.3017C71.3885 15.8581 66.435 21.2751 66.3804 22.9447C66.3437 24.159 67.5252 24.4598 67.6598 22.7934C67.7673 21.4778 66.1141 18.3383 65.1559 17.6305C64.6776 18.5925 62.5461 22.0341 60.6279 24.3631C60.1142 24.9868 58.8158 25.7802 57.8574 25.4264C56.8976 25.0709 56.3118 24.3631 56.2057 23.3V15.8085C55.7789 15.302 52.2107 22.2871 51.1979 23.958C50.185 25.629 48.1594 26.4928 48.1082 23.6042C48.0551 20.6175 48.161 16.9214 47.9477 16.2636C47.4868 14.8405 44.0057 21.9846 42.0875 24.3136C41.5752 24.9355 40.6492 25.7804 39.691 25.4264C38.7312 25.0711 38.3588 24.3633 38.2511 23.3002C38.1452 22.2371 37.9847 16.2123 37.9847 16.2123C37.3459 15.4032 33.5644 23.3502 32.8708 24.5661C32.1551 25.8194 32.0184 25.5777 31.2722 25.1724C30.5259 24.7686 30.5259 24.6674 30.4729 23.5527C30.4199 22.4399 30.3958 18.895 30.4199 17.6807C30.4729 14.948 30.4729 12.4165 30.4199 9.88497C30.367 7.35501 31.1663 4.46797 32.6572 2.59581C34.1502 0.722121 37.9317 0.520905 37.6125 5.27856C37.243 10.7858 31.8582 15.707 29.2481 16.9214C28.712 17.1708 25.8037 18.4367 23.1216 17.6307C18.913 16.3649 21.2981 10.8296 24.9321 14.0361C26.4232 15.3517 26.9577 17.1741 26.9031 19.0478C26.8503 20.9213 25.6255 25.4762 21.0429 25.6789C16.4621 25.8815 15.1299 21.6806 15.0766 20.2122C15.043 19.3019 15.0238 18.086 15.2357 17.6307C15.722 16.5909 15.1299 16.9729 14.8102 17.1741C12.4895 18.6456 10.8152 20.6175 9.2166 22.3884C4.62128 27.4842 3.83469 32.2106 3.67579 33.9315C3.5153 35.6524 3.83446 37.4233 5.16691 37.4748C7.40291 37.5589 8.68367 33.3734 8.78953 29.9316C8.92282 25.6292 6.92438 19.0991 6.76548 14.0361C6.60499 8.97465 8.95002 4.0127 9.37551 3.10238C9.80235 2.19052 9.58904 1.93779 8.47013 2.39306C5.85058 3.45924 2.98236 8.3164 3.09004 13.3781C3.19612 18.4395 4.52834 21.0723 6.92461 23.7553L6.01946 25.1224L5.59398 24.7171C2.1833 21.4778 0.0450032 19.4529 0.000346633 13.3781C-0.0540573 6.24017 6.30826 1.53557 10.122 0.773196C11.1332 0.570658 11.1878 1.27998 10.8684 2.34154C10.5475 3.40464 9.85562 7.30327 10.175 11.5042C10.4946 15.7068 11.1461 19.8582 11.3483 25.0209C11.7128 34.4037 6.79155 40.0061 4.26176 40.0061C2.0244 40.0061 1.65196 37.6771 1.65196 35.4996C1.65196 33.3234 3.19613 26.9961 8.47059 20.9213C13.7448 14.8465 17.8473 13.4296 19.1267 13.1753C20.4043 12.9228 20.6707 13.2268 19.6579 14.2899C18.645 15.3515 18.006 16.6687 18.1667 18.7938C18.3256 20.9215 19.552 23.0462 21.7896 22.9449C24.0269 22.8452 25.2823 20.0112 25.3063 19.0478C25.3592 16.8716 24.4989 16.3307 23.7075 15.453C23.0688 14.7454 22.1586 15.6432 23.3881 16.0111C25.2517 16.5676 27.4363 16.4148 29.0879 15.453C30.7395 14.4912 35.7474 10.9994 35.7474 5.42958C35.7474 2.69708 35.428 2.79835 35.0558 2.79835C34.6817 2.79835 33.457 3.70889 33.3495 9.58094C33.2434 15.453 33.4039 18.8451 33.4039 19.3516C33.4039 19.8584 33.3495 20.9213 34.1504 19.3516C34.9483 17.782 37.3974 12.7702 39.4777 12.7702C40.8627 12.7702 41.4487 13.9348 41.4487 14.7454C41.4487 15.757 41.3943 21.0228 41.3943 21.6806C41.3943 22.2371 41.7152 22.2371 42.0877 21.7819C42.4599 21.3253 46.4568 15.4032 47.4147 13.7836C47.8146 13.1086 48.243 12.6659 49.3329 12.6146C51.4647 12.5131 51.41 15.6557 51.41 17.732C51.41 18.7938 51.4644 19.3003 51.4644 20.0096C51.4644 20.5147 51.6252 20.6175 52.0504 19.8069C52.5303 18.8966 54.8737 14.3899 55.6733 13.5295C56.4725 12.669 56.7455 12.3183 57.5978 12.3183C58.4501 12.3183 59.8288 12.3152 59.7758 16.3651C59.7227 20.4149 59.7758 22.3384 59.7758 22.3384C59.7758 22.6424 59.9893 22.7937 60.3617 22.2371C60.734 21.6806 65.3696 14.0876 65.7418 12.923C66.1143 11.7584 66.8607 12.365 66.9138 13.1755C66.9668 13.9861 70.3245 18.4913 70.164 21.3253C70.0051 24.1608 68.3535 25.4764 66.9136 25.4266C65.4755 25.3767 64.8367 24.2105 64.8367 23.0975C64.8367 21.9846 66.1689 19.8584 67.7131 18.4398C69.2586 17.0229 72.9905 12.8887 78.3146 12.669C79.541 12.619 79.3274 13.5295 78.4751 14.2902C77.6228 15.0492 76.663 17.1741 76.7176 18.6425C76.7707 20.1109 77.7286 22.6924 80.1797 22.6924C82.6309 22.6924 83.6965 20.8202 83.7495 18.7438C83.8026 16.6689 82.7367 15.5045 82.2568 15.1507C81.106 14.2979 80.1077 15.6137 81.7785 16.0111C83.2697 16.3651 85.5619 15.302 87 14.1889C88.438 13.0743 88.8105 12.7702 90.1427 12.8202C91.4749 12.8717 92.2196 14.2902 92.2196 16.4148V19.2504C92.2196 19.6556 92.6466 20.0609 93.1796 18.9465C93.4364 18.4087 94.9901 14.9979 96.3751 13.5808C97.7604 12.1624 98.2403 12.365 98.7734 12.365C99.3061 12.365 100.696 12.7702 100.696 15.5045V21.8833C100.696 22.6424 101.113 22.6924 101.547 22.1871C101.964 21.6808 102.446 21.174 102.975 20.566C103.521 19.9597 104.853 20.0609 103.842 21.478C102.815 22.8949 101.595 25.9332 99.5197 25.8817C97.441 25.8317 97.0685 23.654 97.0157 22.8452C96.9627 22.0344 96.8022 17.0742 96.8552 16.4663C96.9083 15.8585 96.478 15.9831 96.1634 16.5161C95.6835 17.3267 93.0669 22.4366 92.2742 23.7555C91.6338 24.8186 91.1025 25.6789 90.3016 25.6789C89.5037 25.6789 88.9179 25.0211 88.9179 23.4015C88.9179 21.7819 88.971 17.3267 88.8635 15.9098M207.13 15.9096C207.05 14.848 206.392 14.8463 205.541 15.5043C202.074 18.1809 200.373 17.6805 198.719 17.1239C197.066 16.5674 196.376 13.1256 199.313 13.1753C202.235 13.2268 203.839 16.2121 203.727 19.0989C203.615 21.9844 201.865 25.5775 197.548 25.6787C193.23 25.78 191.416 21.7303 191.368 19.5026C191.32 17.2752 192.331 16.1106 192.652 15.8083C192.973 15.5043 193.069 15.2502 192.7 15.3017C189.667 15.8581 184.707 21.2751 184.659 22.9447C184.61 24.159 185.798 24.4598 185.927 22.7934C186.039 21.4778 184.386 18.3383 183.423 17.6305C182.941 18.5925 180.823 22.0341 178.896 24.3631C178.383 24.9868 177.082 25.7802 176.135 25.4264C175.172 25.0709 174.579 24.3631 174.482 23.3V15.8085C174.049 15.302 170.486 22.2871 169.474 23.958C168.463 25.629 166.425 26.4928 166.376 23.6042C166.328 20.6175 166.441 16.9214 166.216 16.2636C165.767 14.8405 162.283 21.9846 160.357 24.3136C159.844 24.9355 158.929 25.7804 157.966 25.4264C157.003 25.0711 156.634 24.3633 156.521 23.3002C156.409 22.2371 156.264 16.2123 156.264 16.2123C155.622 15.4032 151.834 23.3502 151.144 24.5661C150.422 25.8194 150.294 25.5777 149.539 25.1724C148.801 24.7686 148.801 24.6674 148.753 23.5527C148.688 22.4399 148.672 18.895 148.688 17.6807C148.753 14.948 148.753 12.4165 148.688 9.88497C148.64 7.35501 149.443 4.46797 150.935 2.59581C152.428 0.722121 156.2 0.520905 155.879 5.27856C155.51 10.7858 150.133 15.707 147.517 16.9214C146.987 17.1708 144.082 18.4367 141.401 17.6307C137.18 16.3649 139.571 10.8296 143.199 14.0361C144.692 15.3517 145.221 17.1741 145.173 19.0478C145.125 20.9213 143.905 25.4762 139.315 25.6789C134.74 25.8815 133.408 21.6806 133.344 20.2122C133.312 19.3019 133.295 18.086 133.504 17.6307C134.002 16.5909 133.408 16.9729 133.087 17.1741C130.759 18.6456 129.09 20.6175 127.485 22.3884C122.894 27.4842 122.108 32.2106 121.947 33.9315C121.787 35.6524 122.108 37.4233 123.44 37.4748C125.671 37.5589 126.955 33.3734 127.068 29.9316C127.196 25.6292 125.206 19.0991 125.045 14.0361C124.885 8.97465 127.228 4.0127 127.645 3.10238C128.079 2.19052 127.854 1.93779 126.747 2.39306C124.13 3.45946 121.257 8.31662 121.37 13.3783C121.466 18.4398 122.798 21.0725 125.206 23.7555L124.291 25.1226L123.874 24.7173C120.455 21.478 118.32 19.4531 118.272 13.3783C118.224 6.24039 124.58 1.53579 128.4 0.773416C129.411 0.570878 129.459 1.2802 129.138 2.34176C128.817 3.40486 128.127 7.30349 128.448 11.5044C128.769 15.707 129.427 19.8584 129.62 25.0211C129.989 34.4039 125.061 40.0063 122.541 40.0063C120.294 40.0063 119.925 37.6773 119.925 35.4998C119.925 33.3236 121.466 26.9963 126.747 20.9215C132.011 14.8467 136.12 13.4298 137.405 13.1755C138.673 12.923 138.946 13.2271 137.934 14.2902C136.923 15.3517 136.281 16.6689 136.441 18.7938C136.602 20.9215 137.822 23.0462 140.069 22.9449C142.3 22.8452 143.552 20.0112 143.584 19.0478C143.632 16.8716 142.766 16.3307 141.979 15.453C141.337 14.7454 140.438 15.6432 141.658 16.0111C143.52 16.5676 145.703 16.4148 147.356 15.453C149.009 14.4912 154.017 10.9994 154.017 5.42958C154.017 2.69708 153.696 2.79835 153.327 2.79835C152.958 2.79835 151.722 3.70889 151.626 9.58094C151.513 15.453 151.674 18.8451 151.674 19.3516C151.674 19.8584 151.626 20.9213 152.428 19.3516C153.215 17.782 155.67 12.7702 157.757 12.7702C159.138 12.7702 159.715 13.9348 159.715 14.7454C159.715 15.757 159.667 21.0228 159.667 21.6806C159.667 22.2371 159.988 22.2371 160.357 21.7819C160.727 21.3253 164.723 15.4032 165.686 13.7836C166.088 13.1086 166.521 12.722 167.613 12.669C169.731 12.5693 169.683 15.6557 169.683 17.732C169.683 18.7938 169.731 19.3003 169.731 20.0096C169.731 20.5147 169.892 20.6175 170.325 19.8069C170.807 18.8966 173.15 14.3899 173.953 13.5295C174.739 12.669 174.948 12.3385 175.799 12.3385C176.473 12.3385 178.11 12.1296 178.046 16.3651C177.997 20.4149 178.046 22.3384 178.046 22.3384C178.046 22.6424 178.254 22.7937 178.64 22.2371C179.009 21.6806 183.647 14.0876 184.016 12.923C184.386 11.7584 185.14 12.365 185.188 13.1755C185.237 13.9861 188.591 18.4913 188.431 21.3253C188.27 24.1608 186.633 25.4764 185.188 25.4266C183.744 25.3767 183.118 24.2105 183.118 23.0975C183.118 21.9846 184.434 19.8584 185.991 18.4398C187.532 17.0229 191.256 12.8887 196.584 12.669C197.82 12.619 197.596 13.5295 196.745 14.2902C195.894 15.0492 194.931 17.1741 194.995 18.6425C195.044 20.1109 196.007 22.6924 198.446 22.6924C200.902 22.6924 201.962 20.8202 202.026 18.7438C202.074 16.6689 201.015 15.5045 200.533 15.1507C199.377 14.2979 198.382 15.6137 200.052 16.0111C201.544 16.3651 203.839 15.302 205.268 14.1889C206.713 13.0743 207.082 12.7702 208.414 12.8202C209.746 12.8717 210.501 14.2902 210.501 16.4148V19.2504C210.501 19.6556 210.918 20.0609 211.448 18.9465C211.704 18.4087 213.262 14.9979 214.642 13.5808C216.038 12.1624 216.52 12.365 217.049 12.365C217.579 12.365 218.96 12.7702 218.96 15.5045V21.8833C218.96 22.6424 219.393 22.6924 219.81 22.1871C220.244 21.6808 220.725 21.174 221.255 20.566C221.785 19.9597 223.117 20.0609 222.106 21.478C221.094 22.8949 219.875 25.9332 217.788 25.8817C215.717 25.8317 215.348 23.654 215.284 22.8452C215.236 22.0344 215.075 17.0742 215.123 16.4663C215.188 15.8583 214.754 15.9831 214.433 16.5161C213.952 17.3267 211.335 22.4366 210.549 23.7555C209.907 24.8186 209.377 25.6789 208.574 25.6789C207.772 25.6789 207.194 25.0211 207.194 23.4015C207.194 21.7819 207.242 17.3265 207.13 15.9096Z" fill="#DEE7FF"/>
<path d="M112.622 16.0111C113.119 15.8519 113.633 15.6056 114.066 15.4528C114.484 15.3018 114.869 15.3018 115.174 16.2121C115.495 17.1239 116.217 20.4458 115.607 23.3C115.174 25.325 114.002 25.8861 113.793 23.1472C113.633 21.0228 111.033 19.2502 110.07 19.2502C109.107 19.2502 108.625 19.5027 108.673 20.0094C108.738 20.5145 109.813 21.3889 110.92 21.5276C112.943 21.7817 118.063 20.3133 120.519 20.6673L122.22 22.4395C119.123 20.6173 115.334 23.046 111.932 23.046C108.946 23.046 105.624 22.2869 105.543 19.908C105.479 18.4396 107.084 17.8861 108.673 17.8333C110.182 17.7818 111.803 18.0094 113.151 19.3001C113.472 19.6039 113.633 19.6554 113.585 19.0989C113.537 18.5408 112.831 17.2752 112.461 16.8199C112.092 16.3649 112.301 16.1108 112.622 16.0111Z" fill="#DEE7FF"/>
</svg>
